<?xml version="1.0" encoding="UTF-8"?>
<svg id="Capa_2" data-name="Capa 2" xmlns="http://www.w3.org/2000/svg" viewBox="0 0 67.78 87.06">
  <g id="Variaciones">
    <g id="logo">
      <g>
        <path d="M7.4,75.09c-2.42,0-4.65-1.2-5.98-3.2-1.33-2-1.54-4.51-.58-6.71l5.81-13.25c1.14-2.59,3.71-4.26,6.56-4.26h19.49c2.85,0,5.42,1.67,6.56,4.26,.96,2.2,.75,4.71-.58,6.71-1.33,2-3.56,3.2-5.98,3.2h-10.72c-2.48,0-4.71,1.45-5.7,3.71l-.4-.17c1.06-2.41,3.45-3.96,6.1-3.96h10.72c2.27,0,4.37-1.12,5.62-3.01,1.25-1.88,1.45-4.24,.54-6.31-1.07-2.43-3.49-4-6.16-4H13.22c-2.68,0-5.09,1.57-6.16,4l-5.81,13.25c-.91,2.07-.7,4.42,.54,6.31,1.25,1.88,3.35,3.01,5.62,3.01,2.68,0,5.09-1.57,6.16-4l.4,.17c-1.14,2.59-3.71,4.26-6.56,4.26Z" fill="#add9c8" stroke="#add9c8" stroke-miterlimit="10" stroke-width=".5"/>
        <path d="M7.36,67.93l-.39-.18,4.59-9.72c1.14-2.41,3.71-3.96,6.55-3.96h15.77v.43h-15.77c-2.68,0-5.1,1.46-6.16,3.71l-4.59,9.72Z" fill="#add9c8" stroke="#add9c8" stroke-miterlimit="10" stroke-width=".5"/>
        <path d="M60.71,75.09h-.73c-2.72,0-5.17-1.59-6.25-4.06l-9.28-21.14,.4-.17,9.28,21.14c1.01,2.31,3.31,3.81,5.86,3.81h.73c2.16,0,4.16-1.07,5.34-2.86s1.38-4.03,.52-5.99L39.66,4.48c-1.03-2.35-3.27-3.81-5.86-3.81s-4.83,1.46-5.86,3.81l-12.37,28.2c-.86,1.96-.67,4.2,.52,5.99,1.18,1.79,3.18,2.86,5.34,2.86h.72c2.54,0,4.84-1.49,5.86-3.81l4.77-10.87c.21-.49,.67-.66,1.02-.66s.81,.17,1.02,.66l6.26,14.26-.4,.17-6.25-14.26c-.13-.3-.41-.41-.63-.41s-.49,.11-.63,.41l-4.77,10.87c-1.08,2.47-3.54,4.06-6.25,4.06h-.72c-2.31,0-4.44-1.14-5.7-3.05-1.26-1.91-1.47-4.3-.55-6.4L27.55,4.31c1.1-2.51,3.49-4.06,6.25-4.06s5.15,1.56,6.25,4.06l26.9,61.32c.92,2.1,.71,4.49-.55,6.4-1.26,1.91-3.4,3.05-5.7,3.05Z" fill="#add9c8" stroke="#add9c8" stroke-miterlimit="10" stroke-width=".5"/>
        <path d="M60.44,68.61L35.55,12.82c-.3-.67-.95-1.1-1.69-1.1,0,0-.01,0-.02,0-.73,0-1.38,.41-1.69,1.07l-10.34,21.99-.39-.18L31.76,12.61c.39-.82,1.2-1.32,2.11-1.32,.91,0,1.71,.53,2.08,1.36l24.89,55.79-.39,.17Z" fill="#add9c8" stroke="#add9c8" stroke-miterlimit="10" stroke-width=".5"/>
        <ellipse cx="40.96" cy="41.25" rx=".97" ry=".96" fill="#fff" stroke="#fff" stroke-miterlimit="10" stroke-width=".33"/>
        <ellipse cx="21.61" cy="34.73" rx=".97" ry=".96" fill="#fff" stroke="#fff" stroke-miterlimit="10" stroke-width=".33"/>
        <ellipse cx="44.68" cy="49.85" rx=".97" ry=".96" fill="#fff" stroke="#fff" stroke-miterlimit="10" stroke-width=".33"/>
        <ellipse cx="60.64" cy="68.52" rx=".97" ry=".96" fill="#fff" stroke="#fff" stroke-miterlimit="10" stroke-width=".33"/>
        <ellipse cx="33.89" cy="54.28" rx=".97" ry=".96" fill="#fff" stroke="#fff" stroke-miterlimit="10" stroke-width=".33"/>
        <ellipse cx="7.17" cy="67.84" rx=".97" ry=".96" fill="#fff" stroke="#fff" stroke-miterlimit="10" stroke-width=".33"/>
        <ellipse cx="13.86" cy="70.64" rx=".97" ry=".96" fill="#fff" stroke="#fff" stroke-miterlimit="10" stroke-width=".33"/>
        <ellipse cx="16.17" cy="65.41" rx=".97" ry=".96" fill="#fff" stroke="#fff" stroke-miterlimit="10" stroke-width=".33"/>
      </g>
      <g>
        <path d="M4.55,78.93h.06c.25,0,.46,.12,.62,.37,1.23,2.42,1.85,3.66,1.87,3.71,.05,.16,.07,.25,.07,.28,0,.29-.14,.51-.42,.68-.12,.06-.24,.09-.35,.09-.25,0-.46-.11-.63-.34-.02-.03-.36-.71-1.03-2.03-.05-.04-.1-.07-.15-.07-.1,0-.19,.09-.25,.27l-2.48,4.86c-.1,.14-.24,.25-.43,.31-.03,0-.05,0-.07,0h-.26c-.11,0-.25-.06-.4-.19-.15-.16-.23-.34-.23-.55,0-.14,.11-.42,.33-.82,0,0,.85-1.7,2.56-5.08,.37-.75,.58-1.14,.6-1.18,.17-.21,.37-.31,.59-.31Zm3.36,6.67h.06c.25,0,.45,.12,.61,.36,.07,.13,.11,.25,.11,.37,0,.28-.14,.5-.41,.66-.1,.04-.17,.07-.22,.07h-.25c-.12,0-.25-.07-.42-.21-.14-.16-.21-.33-.21-.51,0-.24,.1-.44,.3-.6,.14-.09,.28-.14,.41-.14Z" fill="#add9c8"/>
        <path d="M12.14,79.57c.25,0,.45,.12,.6,.37,.05,.11,.07,.2,.07,.29,0,.26-.13,.45-.38,.59-.49,.35-.83,.79-1.01,1.35-.1,.32-.15,.62-.15,.9,0,.66,.25,1.27,.76,1.83,.23,.22,.42,.37,.56,.44,.45,.25,.92,.37,1.41,.37,.6,0,1.17-.21,1.7-.62,.12-.07,.23-.1,.35-.1,.26,0,.47,.13,.61,.4,.04,.09,.06,.18,.06,.27,0,.27-.15,.49-.46,.67-.22,.15-.41,.26-.59,.35-.21,.1-.4,.17-.58,.23-.36,.1-.62,.14-.79,.14h-.61c-.25,0-.62-.08-1.11-.23-.95-.34-1.69-1-2.22-1.99-.29-.58-.44-1.16-.44-1.76,0-.69,.17-1.36,.52-2.01,.11-.2,.28-.43,.51-.69,.22-.23,.39-.39,.51-.47,.27-.22,.48-.33,.62-.33h.06Zm1.7-.73h.04c.23,0,.42,.11,.59,.32,.08,.12,.13,.26,.13,.41,0,.27-.13,.48-.4,.64-.12,.05-.23,.08-.33,.08-.29,0-.51-.14-.67-.43-.04-.11-.06-.21-.06-.3,0-.27,.13-.48,.39-.64,.11-.05,.22-.08,.32-.08Z" fill="#add9c8"/>
        <path d="M18.72,78.85h2.81c.24,0,.43,.12,.59,.36,.05,.11,.08,.21,.08,.31v6.87c0,.26-.13,.46-.39,.61-.09,.04-.15,.05-.18,.05h-.24c-.11,0-.24-.07-.38-.19-.13-.13-.19-.31-.19-.54v-6.1h-2.1c-.22,0-.4-.11-.57-.33-.06-.13-.1-.25-.1-.35,0-.24,.11-.43,.33-.59,.12-.07,.23-.1,.34-.1Zm5.52,0h.05c.22,0,.41,.11,.57,.34,.06,.12,.09,.24,.09,.36,0,.25-.12,.45-.37,.6-.11,.05-.21,.08-.3,.08h-.05c-.24,0-.43-.12-.58-.35-.06-.11-.09-.22-.09-.34,0-.25,.12-.44,.36-.59,.11-.06,.21-.09,.31-.09Z" fill="#add9c8"/>
        <path d="M29.78,80.61h.05c.25,0,.45,.09,.61,.28,.05,.09,.08,.17,.08,.24v5.39c0,.23-.15,.39-.45,.5-.07,.02-.11,.03-.14,.03h-.26c-.12,0-.25-.06-.42-.17-.12-.11-.17-.23-.17-.37v-5.36c0-.24,.15-.41,.46-.52,.08-.02,.16-.03,.23-.03Z" fill="#add9c8"/>
        <path d="M35.27,79.53h.03c.28,0,.49,.14,.64,.41,1.66,3.28,2.49,4.93,2.5,4.94,.85-1.69,1.3-2.56,1.33-2.61,.16-.21,.36-.32,.6-.32,.27,0,.49,.13,.64,.4,.05,.1,.07,.19,.07,.27v.08c0,.12-.07,.3-.22,.56-1.14,2.27-1.72,3.42-1.75,3.46-.1,.15-.24,.26-.42,.32-.05,.02-.1,.03-.13,.03h-.25c-.14,0-.29-.09-.45-.23-.1-.11-.22-.32-.36-.63,0,0-.84-1.67-2.52-4.99-.25-.5-.38-.76-.39-.78-.01-.07-.02-.14-.02-.19,0-.27,.14-.48,.41-.64,.1-.04,.2-.06,.28-.06Zm6.31,0h.03c.18,0,.35,.07,.49,.2,.15,.15,.22,.31,.22,.48v.05c0,.22-.11,.41-.32,.57-.12,.08-.25,.12-.38,.12h-.02c-.23,0-.42-.1-.58-.3-.09-.12-.13-.26-.13-.4h0c0-.28,.14-.5,.41-.65,.1-.04,.2-.06,.29-.06Z" fill="#add9c8"/>
        <path d="M47.62,78.93h.06c.25,0,.46,.12,.62,.37,1.23,2.42,1.85,3.66,1.87,3.71,.05,.16,.07,.25,.07,.28,0,.29-.14,.51-.42,.68-.12,.06-.24,.09-.35,.09-.25,0-.46-.11-.63-.34-.02-.03-.36-.71-1.03-2.03-.05-.04-.1-.07-.15-.07-.1,0-.19,.09-.25,.27l-2.48,4.86c-.1,.14-.24,.25-.43,.31-.03,0-.05,0-.07,0h-.26c-.11,0-.25-.06-.4-.19-.15-.16-.23-.34-.23-.55,0-.14,.11-.42,.33-.82,0,0,.85-1.7,2.56-5.08,.37-.75,.58-1.14,.6-1.18,.17-.21,.37-.31,.59-.31Zm3.36,6.67h.06c.25,0,.45,.12,.61,.36,.07,.13,.11,.25,.11,.37,0,.28-.14,.5-.41,.66-.1,.04-.17,.07-.22,.07h-.25c-.12,0-.25-.07-.42-.21-.14-.16-.21-.33-.21-.51,0-.24,.1-.44,.3-.6,.14-.09,.28-.14,.41-.14Z" fill="#add9c8"/>
        <path d="M30.43,79.05l-1.05,1.07c-.17-.16-.23-.37-.21-.63,.03-.16,.09-.3,.19-.39l.04-.04c.17-.18,.4-.24,.7-.18,.14,.04,.25,.09,.34,.18Z" fill="#add9c8"/>
        <path d="M53.56,78.85h2.81c.24,0,.43,.12,.59,.36,.05,.11,.08,.21,.08,.31v6.87c0,.26-.13,.46-.39,.61-.09,.04-.15,.05-.18,.05h-.24c-.11,0-.24-.07-.38-.19-.13-.13-.19-.31-.19-.54v-6.1h-2.1c-.22,0-.4-.11-.57-.33-.06-.13-.1-.25-.1-.35,0-.24,.11-.43,.33-.59,.12-.07,.23-.1,.34-.1Zm5.52,0h.05c.22,0,.41,.11,.57,.34,.06,.12,.09,.24,.09,.36,0,.25-.12,.45-.37,.6-.11,.05-.21,.08-.3,.08h-.05c-.24,0-.43-.12-.58-.35-.06-.11-.09-.22-.09-.34,0-.25,.12-.44,.36-.59,.11-.06,.21-.09,.31-.09Z" fill="#add9c8"/>
        <path d="M62.56,78.85h4.06s.01,0,.01,0c.24,0,.44,.12,.59,.37,.05,.1,.08,.21,.08,.32,0,.27-.13,.47-.4,.61-.09,.04-.18,.06-.27,.06h-4.12c-.19,0-.36-.09-.51-.26-.1-.13-.15-.26-.15-.39v-.06c0-.21,.11-.39,.32-.54,.12-.07,.23-.11,.34-.11h.04Zm0,3.42h2.09c.14,0,.29,.08,.45,.22,.13,.14,.19,.3,.19,.47,0,.24-.11,.43-.33,.58-.11,.06-.22,.1-.32,.1h-2.11c-.21,0-.39-.1-.54-.31-.07-.12-.11-.23-.11-.35v-.06c0-.22,.11-.4,.34-.56,.12-.06,.23-.09,.33-.09h0s0,0,0,0Zm0,3.41h4.05s.05,.01,.15,.02c.17,.04,.3,.12,.38,.23,.11,.13,.17,.28,.17,.45,0,.26-.13,.46-.4,.61-.08,.03-.14,.04-.16,.04h-4.33c-.11,0-.25-.08-.41-.23-.1-.14-.15-.28-.15-.42v-.04c0-.24,.12-.43,.36-.58,.07-.04,.18-.07,.33-.09,0,0,0,0,0,0Zm4.04-3.41h.03c.26,0,.47,.13,.61,.4,.04,.1,.06,.19,.06,.28,0,.27-.13,.47-.4,.62-.1,.04-.18,.06-.26,.06h-.07c-.22,0-.41-.11-.56-.34-.06-.12-.09-.23-.09-.34,0-.26,.13-.47,.4-.61,.1-.04,.19-.06,.28-.06Z" fill="#add9c8"/>
      </g>
    </g>
  </g>
</svg>