<?xml version="1.0" encoding="utf-8"?>
<!-- Generator: Adobe Illustrator 26.4.1, SVG Export Plug-In . SVG Version: 6.00 Build 0)  -->
<svg version="1.1" id="Layer_1" xmlns="http://www.w3.org/2000/svg" xmlns:xlink="http://www.w3.org/1999/xlink" x="0px" y="0px"
	 viewBox="0 0 453 138.2" style="enable-background:new 0 0 453 138.2;" xml:space="preserve">
<style type="text/css">
	.st0{fill:#FFFFFF;}
	.st1{fill:#F2FFFC;}
</style>
<g>
	<g>
		<g>
			<g>
				<path d="M53.5,66c-1.6,0-3.2-0.7-4.9-2.2l-0.2-0.1l-0.1-0.2c-1.4-1.6-2.2-3.6-2.2-5.6c0-2.6,1.1-4.8,3.2-6.5l0.1-0.1l0.1-0.1
					c1.5-1,3-1.5,4.5-1.5h0.4c1.9,0,4.6,0.7,6.8,3.9l0.1,0.1l0.1,0.1c0.7,1.4,1.1,2.7,1.1,4c0,2.1-0.7,5.1-4.3,7.2l-0.2,0.1L58,65.3
					c-1.1,0.5-2,0.8-2.8,0.8H53.5z M8.8,66c-1.5,0-3.1-0.7-4.7-2L4,63.9l-0.1-0.1c-1.6-1.6-2.5-3.7-2.5-5.9c0-1.6,0.8-3.7,2.6-7l0,0
					c0.5-1.2,1.7-3.4,4.2-8.5C11,36.7,15.3,28.2,21,16.8c3.8-7.7,4.1-8.1,4.3-8.3l0.1-0.1l0.1-0.1C27.6,5.6,30.1,5,31.8,5h0.4
					c1.9,0,4.7,0.7,6.9,4l0.1,0.2l0.1,0.2c12.4,24.6,12.5,25,12.6,25.4c0.5,1.8,0.6,2.4,0.6,2.9c0,3.1-1.6,5.7-4.4,7.3l-0.1,0.1
					L47.8,45c-1.2,0.6-2.5,0.9-3.8,0.9c-1.9,0-4.6-0.6-6.8-3.6l-0.1-0.1c-0.2-0.2-0.3-0.4-5.2-10.2L16.6,62.3l-0.1,0.2
					c-1.1,1.6-2.6,2.7-4.5,3.3l-0.1,0l-0.1,0C11.3,66,10.9,66,10.5,66H8.8z"/>
			</g>
			<g>
				<path d="M92.6,66c-2,0-4.7-0.6-8.4-1.7l-0.1,0c-7.1-2.5-12.7-7.5-16.5-14.9c-2.2-4.4-3.3-8.8-3.3-13.3c0-5.1,1.3-10.2,3.8-15
					c0.9-1.7,2.2-3.4,3.9-5.3c1.7-1.8,2.9-2.9,3.9-3.6c2.3-1.9,4.1-2.7,5.8-2.9L82,9.3h0.3c1.3,0,2.6,0.3,3.7,0.9
					c0.6-1.9,1.9-3.6,3.8-4.8l0.1-0.1L90,5.4c1.2-0.6,2.4-0.9,3.5-0.9h0.3c1.8,0,4.3,0.6,6.5,3.4l0.1,0.2c0.9,1.4,1.4,2.9,1.4,4.6
					c0,3-1.5,5.5-4.2,7.1l-0.2,0.1l-0.2,0.1c-1.2,0.5-2.4,0.8-3.5,0.8c-1.5,0-3-0.4-4.2-1.2c-0.6,1.7-1.8,3.2-3.6,4.2
					c-2.6,1.9-4.4,4.3-5.4,7.3c-0.5,1.8-0.8,3.5-0.8,5c0,3.6,1.4,6.9,4.2,10c1.7,1.6,2.5,2.1,2.8,2.3l0.1,0l0.1,0.1
					c2.5,1.4,5.1,2.1,7.8,2.1c3.3,0,6.3-1.1,9.3-3.5l0.2-0.1l0.2-0.1c1.3-0.7,2.6-1.1,4-1.1c2.9,0,5.4,1.6,6.9,4.4l0.1,0.1l0.1,0.2
					c0.4,1,0.6,2,0.6,3.1c0,2.1-0.8,5-4.6,7.2c-1.5,1-3,1.9-4.3,2.5c-1.5,0.7-2.9,1.3-4.3,1.7l-0.1,0c-2.7,0.7-4.7,1.1-6.1,1.1H92.6
					z"/>
			</g>
			<g>
				<path d="M143.7,66L143.7,66c-1.6-0.1-3.1-0.8-4.6-2.1l-0.1-0.1l-0.1-0.1c-1.4-1.5-2.2-3.5-2.2-5.8V20.2H126
					c-1.7,0-4.3-0.6-6.4-3.6l-0.2-0.2l-0.1-0.3c-0.6-1.3-1-2.6-1-3.8c0-1.9,0.6-4.5,3.6-6.6l0.1-0.1l0.1-0.1
					c1.3-0.7,2.6-1.1,3.9-1.1h18.7c1.9,0,4.6,0.7,6.6,3.9l0.1,0.1l0.1,0.2c0.6,1.2,0.9,2.4,0.9,3.5v46.1c0,2.9-1.5,5.3-4.2,6.9
					l-0.2,0.1l-0.2,0.1c-1,0.4-1.8,0.6-2.4,0.6H143.7z M162.7,20.2c-1.9,0-4.6-0.7-6.6-3.9l-0.1-0.1l-0.1-0.1
					c-0.6-1.2-0.9-2.5-0.9-3.7c0-1.9,0.7-4.7,3.9-6.7l0.1-0.1l0.1-0.1c1.2-0.6,2.4-1,3.6-1h0.4c1.8,0,4.3,0.6,6.4,3.6l0.1,0.2
					l0.1,0.2c0.7,1.2,1,2.6,1,3.9c0,1.9-0.7,4.7-4,6.8l-0.2,0.1l-0.2,0.1c-1.2,0.5-2.3,0.8-3.4,0.8H162.7z"/>
			</g>
			<g>
				<path d="M198.9,66c-1.5,0-3-0.6-4.7-1.8l-0.2-0.1L194,64c-1.4-1.3-2.2-3-2.2-4.9v-36c0-1.7,0.7-4.9,5.3-6.5l0.2-0.1l0.2,0
					c0.8-0.2,1.6-0.3,2.3-0.3h0.4c2.6,0,4.8,1.1,6.5,3l0.1,0.2l0.1,0.2c0.7,1.1,1.1,2.2,1.1,3.4v36.2c0,1.7-0.7,4.8-5.1,6.4
					l-0.1,0.1l-0.1,0c-0.8,0.2-1.3,0.3-1.8,0.3H198.9z"/>
			</g>
			<g>
				<path d="M256.3,66l-0.1,0c-1.7-0.1-3.4-0.9-5-2.4l-0.2-0.1l-0.1-0.2c-0.9-1-1.8-2.6-2.9-5l0,0c-1.1-2.1-4.5-8.9-16.8-33.4
					c-2.7-5.3-2.8-5.6-2.9-6.2c-0.1-0.7-0.2-1.2-0.2-1.8c0-3,1.6-5.5,4.4-7.1l0.2-0.1l0.2-0.1c1.1-0.4,2.1-0.7,3.1-0.7h0.2
					c3,0,5.6,1.6,7.1,4.5l0.1,0.1c7.3,14.5,11.4,22.8,13.7,27.4c5.7-11.5,5.9-11.8,6-11.9l0.1-0.2l0.1-0.2c2.1-2.8,4.7-3.4,6.5-3.4
					c3,0,5.5,1.5,7.1,4.3l0.1,0.1l0.1,0.1c0.5,1.1,0.8,2.2,0.8,3.2v0.5c0,1.4-0.6,3-1.8,5.3c-10.2,20.4-11.5,22.9-11.8,23.5l0,0
					c-1.1,1.6-2.6,2.8-4.4,3.4c-0.7,0.3-1.3,0.4-1.9,0.4H256.3z M278.2,25c-2.5,0-4.8-1.1-6.4-3.3l-0.1-0.1c-1-1.4-1.4-2.9-1.4-4.5
					c0-3.1,1.6-5.6,4.4-7.2l0.2-0.1l0.2-0.1c1.1-0.4,2.1-0.7,3.1-0.7h0.2c2,0,3.9,0.8,5.5,2.2l0.1,0.1c1.9,2,2.3,4.1,2.3,5.5v0.4
					c0,1.8-0.6,4.3-3.5,6.4l-0.1,0.1c-1.3,0.9-2.8,1.3-4.3,1.3H278.2z"/>
			</g>
			<g>
				<path d="M340,66c-1.6,0-3.2-0.7-4.9-2.2l-0.2-0.1l-0.1-0.2c-1.4-1.6-2.2-3.6-2.2-5.6c0-2.6,1.1-4.8,3.2-6.5l0.1-0.1l0.1-0.1
					c1.5-1,3-1.5,4.5-1.5h0.4c1.9,0,4.6,0.7,6.8,3.9l0.1,0.1l0.1,0.1c0.7,1.4,1.1,2.7,1.1,4c0,2.1-0.7,5.1-4.3,7.2l-0.2,0.1
					l-0.2,0.1c-1.1,0.5-2,0.8-2.8,0.8H340z M295.3,66c-1.5,0-3.1-0.7-4.7-2l-0.1-0.1l-0.1-0.1c-1.6-1.6-2.5-3.7-2.5-5.9
					c0-1.6,0.8-3.7,2.6-7l0,0c0.5-1.2,1.7-3.4,4.2-8.5c2.8-5.7,7.1-14.2,12.8-25.5c3.8-7.7,4.1-8,4.3-8.3l0.1-0.1l0.1-0.1
					c2.2-2.7,4.7-3.3,6.4-3.3h0.4c1.9,0,4.7,0.7,6.9,4l0.1,0.2l0.1,0.2c12.4,24.6,12.5,25,12.6,25.4c0.5,1.8,0.6,2.4,0.6,2.9
					c0,3.1-1.6,5.7-4.4,7.3l-0.1,0.1l-0.1,0.1c-1.2,0.6-2.5,0.9-3.8,0.9c-1.9,0-4.6-0.6-6.8-3.6l-0.1-0.1c-0.2-0.2-0.3-0.4-5.2-10.2
					l-15.3,30.4l-0.1,0.2c-1.1,1.6-2.6,2.7-4.5,3.3l-0.1,0l-0.1,0c-0.4,0.1-0.8,0.2-1.2,0.2H295.3z"/>
			</g>
			<g>
				<path d="M194.8,18.6c-1.2-1.2-2.7-3.4-2.4-6.8l0-0.1l0-0.1c0.3-1.7,1-3.2,2.1-4.4l0.3-0.3c1.5-1.5,3.4-2.3,5.6-2.3
					c0.6,0,1.3,0.1,1.9,0.2l0.1,0l0.1,0c1.5,0.4,2.7,1,3.7,2l2.3,2.3l-11.5,11.8L194.8,18.6z"/>
			</g>
			<g>
				<path d="M375.5,66L375.5,66c-1.6-0.1-3.1-0.8-4.6-2.1l-0.1-0.1l-0.1-0.1c-1.4-1.5-2.2-3.5-2.2-5.8V20.2h-10.7
					c-1.7,0-4.3-0.6-6.4-3.6l-0.2-0.2l-0.1-0.3c-0.6-1.3-1-2.6-1-3.8c0-1.9,0.6-4.5,3.6-6.6l0.1-0.1l0.1-0.1
					c1.3-0.7,2.6-1.1,3.9-1.1h18.7c1.9,0,4.6,0.7,6.6,3.9l0.1,0.1l0.1,0.2c0.6,1.2,0.9,2.4,0.9,3.5v46.1c0,2.9-1.5,5.3-4.2,6.9
					l-0.2,0.1l-0.2,0.1c-1,0.4-1.8,0.6-2.4,0.6H375.5z M394.5,20.2c-1.9,0-4.6-0.7-6.6-3.9l-0.1-0.1l-0.1-0.1
					c-0.6-1.2-0.9-2.5-0.9-3.7c0-1.9,0.7-4.7,3.9-6.7l0.1-0.1l0.1-0.1c1.2-0.6,2.4-1,3.6-1h0.4c1.8,0,4.3,0.6,6.4,3.6l0.1,0.2
					l0.1,0.2c0.7,1.2,1,2.6,1,3.9c0,1.9-0.7,4.7-4,6.8l-0.2,0.1l-0.2,0.1c-1.2,0.5-2.3,0.8-3.4,0.8H394.5z"/>
			</g>
			<g>
				<path d="M416.8,66c-1.6,0-3.3-0.8-4.9-2.4l-0.2-0.2l-0.2-0.2c-1.1-1.5-1.7-3.1-1.7-4.7v-0.3c0-1.9,0.7-4.6,3.9-6.6
					c0.2-0.1,0.4-0.2,0.7-0.3v-0.7l3.3,0h30.1v0.7c1.1,0.5,2.1,1.2,2.8,2.1c1.2,1.4,1.9,3.2,1.9,5.1c0,2.9-1.5,5.4-4.3,6.9l-0.2,0.1
					l-0.3,0.1c-1,0.3-1.6,0.5-2.2,0.5H416.8z M444.5,43.2c-1.8,0-4.3-0.6-6.4-3.7l-0.1-0.1l0,0c-0.6,0.9-1.4,1.9-2.6,2.7l-0.1,0.1
					l-0.1,0.1c-1.2,0.7-2.5,1.1-3.8,1.1h-14c-1.7,0-4.1-0.6-6.2-3.4l-0.1-0.2c-0.8-1.3-1.2-2.7-1.2-4.1v-0.4c0-1.8,0.6-4.3,3.7-6.4
					l0.2-0.1l0.2-0.1c0.2-0.1,0.4-0.2,0.5-0.2v-0.8l17.1,0.1c1.7,0,3.5,0.8,5.1,2.2l0.2,0.1l0.1,0.2c0.4,0.4,0.7,0.9,1,1.4
					c0.7-1.2,1.8-2.3,3.3-3.1l0.2-0.1l0.2-0.1c1.1-0.4,2.1-0.7,3.1-0.7h0.2c2.9,0,5.4,1.6,6.9,4.4l0.1,0.2l0.1,0.2
					c0.4,1,0.6,2.1,0.6,3.1c0,3-1.5,5.5-4.4,7l-0.2,0.1l-0.2,0.1c-1,0.4-2,0.6-2.9,0.6H444.5z M417.4,20.2c-1.6,0-3.9-0.5-5.9-2.9
					l-0.1-0.1c-1.1-1.4-1.6-3-1.6-4.6v-0.4c0-1.7,0.6-4.2,3.5-6.3l0.1-0.1l0.1-0.1c1.1-0.6,2.2-1,3.3-1.1l0.2-0.1h28.4l0.2,0.1
					c1.9,0.2,4.2,1.1,5.9,4l0.1,0.1l0.1,0.1c0.6,1.1,0.9,2.3,0.9,3.6c0,3-1.5,5.4-4.3,7l-0.1,0.1l-0.1,0c-1,0.5-2.1,0.7-3.2,0.7
					H417.4z"/>
			</g>
		</g>
	</g>
	<g>
		<path d="M325.8,119.7H139c-4.6,0-8.4-3.7-8.4-8.4V83.8c0-4.6,3.7-8.4,8.4-8.4h186.8c4.6,0,8.4,3.7,8.4,8.4v27.6
			C334.2,116,330.4,119.7,325.8,119.7z"/>
		<g>
			<g>
				<g>
					<path class="st0" d="M145.8,104.7h4.6V92.5h-3.9v-3c2.3-0.4,3.7-1,5.2-1.9h3.6v17.1h3.9v3.9h-13.4V104.7z"/>
					<path class="st0" d="M162.3,98c0-7.2,3-10.8,7.5-10.8c4.5,0,7.5,3.7,7.5,10.8c0,7.2-3,11-7.5,11
						C165.3,109,162.3,105.1,162.3,98z M172.7,98c0-5.7-1.3-7.1-2.9-7.1c-1.6,0-2.9,1.3-2.9,7.1s1.3,7.2,2.9,7.2
						C171.4,105.2,172.7,103.7,172.7,98z"/>
					<path class="st0" d="M179.5,93.1c0-2.3,1.8-3.6,6.2-4c-0.1-0.9-0.5-1.4-1.6-1.4c-0.9,0-1.9,0.4-3,1l-1.2-2.3
						c1.5-0.9,3.1-1.4,4.8-1.4c2.8,0,4.4,1.6,4.4,4.9v6.3h-2.7l-0.3-1.1h-0.1c-0.8,0.8-1.8,1.4-3.1,1.4
						C180.8,96.4,179.5,94.9,179.5,93.1z M185.7,93v-1.8c-2.2,0.2-2.9,0.9-2.9,1.7c0,0.7,0.4,1,1.2,1
						C184.6,93.8,185.1,93.5,185.7,93z"/>
					<path class="st0" d="M199.6,87h13.5v4.1h-8.6v4.3h7.4v4.1h-7.4v5h9v4.1h-13.9V87z"/>
					<path class="st0" d="M217.8,87h6.1c6.6,0,10.8,3.3,10.8,10.7c0,7.4-4.2,10.9-10.6,10.9h-6.4V87z M223.6,104.7
						c3.7,0,6.1-1.8,6.1-7c0-5.2-2.5-6.8-6.1-6.8h-0.9v13.7H223.6z"/>
					<path class="st0" d="M238.8,87h4.9v21.6h-4.9V87z"/>
					<path class="st0" d="M247.7,97.9c0-7.2,4.7-11.3,10.2-11.3c2.8,0,5,1.3,6.5,2.8l-2.6,3.1c-1.1-1-2.2-1.7-3.8-1.7
						c-3,0-5.3,2.6-5.3,6.9c0,4.4,2.1,7,5.2,7c1.8,0,3.2-0.9,4.2-2l2.6,3.1c-1.8,2.1-4.2,3.2-7,3.2
						C252.3,109,247.7,105.2,247.7,97.9z"/>
					<path class="st0" d="M268,87h4.9v21.6H268V87z"/>
					<path class="st0" d="M277,97.7c0-7.1,4-11.1,9.8-11.1c5.8,0,9.8,4.1,9.8,11.1c0,7.1-4,11.3-9.8,11.3
						C281,109,277,104.8,277,97.7z M291.6,97.7c0-4.3-1.9-6.9-4.8-6.9c-2.9,0-4.8,2.6-4.8,6.9c0,4.3,1.9,7.1,4.8,7.1
						C289.8,104.8,291.6,102,291.6,97.7z M284.3,83.6L290,79l2.6,3.1l-6.1,3.9L284.3,83.6z"/>
					<path class="st0" d="M300.7,87h5l5.6,10.7l2.1,4.7h0.1c-0.2-2.3-0.6-5.3-0.6-7.9V87h4.7v21.6h-5L307,97.8l-2.1-4.7h-0.1
						c0.2,2.4,0.6,5.3,0.6,7.8v7.7h-4.7V87z"/>
				</g>
			</g>
		</g>
		<g>
			<g>
				<g>
					<path d="M126.8,125.7h5.1v1h-4v2.8h3.4v1H128v3.2h4.1v1h-5.3V125.7z"/>
					<path d="M137.6,131.1l-2-3.1h1.2l0.9,1.4c0.2,0.4,0.4,0.7,0.6,1.1h0.1c0.2-0.4,0.4-0.7,0.6-1.1l0.8-1.4h1.2l-2,3.3l2.1,3.3
						h-1.2l-1-1.5c-0.2-0.4-0.5-0.8-0.7-1.2h-0.1c-0.2,0.4-0.4,0.8-0.7,1.2l-0.9,1.5h-1.2L137.6,131.1z"/>
					<path d="M144.8,128h0.9l0.1,0.8h0c0.6-0.5,1.3-0.9,2.1-0.9c1.7,0,2.6,1.3,2.6,3.4c0,2.2-1.3,3.6-2.8,3.6
						c-0.6,0-1.2-0.3-1.8-0.8l0,1.1v2.2h-1.1V128z M149.4,131.2c0-1.5-0.5-2.4-1.7-2.4c-0.6,0-1.1,0.3-1.8,0.9v3.4
						c0.6,0.5,1.2,0.7,1.6,0.7C148.6,133.8,149.4,132.8,149.4,131.2z"/>
					<path d="M154.3,131.3c0-2.1,1.4-3.5,3-3.5c1.7,0,2.6,1.2,2.6,3.1c0,0.2,0,0.5-0.1,0.6h-4.4c0.1,1.4,0.9,2.3,2.2,2.3
						c0.6,0,1.1-0.2,1.6-0.5l0.4,0.7c-0.6,0.4-1.3,0.7-2.2,0.7C155.7,134.7,154.3,133.4,154.3,131.3z M158.9,130.7
						c0-1.3-0.6-2-1.6-2c-0.9,0-1.8,0.7-1.9,2H158.9z"/>
					<path d="M164,128h0.9l0.1,1.2h0c0.5-0.8,1.1-1.4,1.9-1.4c0.3,0,0.5,0,0.7,0.1l-0.2,1c-0.2-0.1-0.4-0.1-0.6-0.1
						c-0.6,0-1.2,0.4-1.7,1.5v4.2H164V128z"/>
					<path d="M171,125.9c0-0.4,0.3-0.7,0.8-0.7c0.4,0,0.8,0.3,0.8,0.7c0,0.4-0.3,0.7-0.8,0.7C171.3,126.6,171,126.3,171,125.9z
						 M171.2,128h1.1v6.6h-1.1V128z"/>
					<path d="M176.5,131.3c0-2.1,1.4-3.5,3-3.5c1.7,0,2.6,1.2,2.6,3.1c0,0.2,0,0.5-0.1,0.6h-4.4c0.1,1.4,0.9,2.3,2.2,2.3
						c0.6,0,1.1-0.2,1.6-0.5l0.4,0.7c-0.6,0.4-1.3,0.7-2.2,0.7C177.9,134.7,176.5,133.4,176.5,131.3z M181.1,130.7
						c0-1.3-0.6-2-1.6-2c-0.9,0-1.8,0.7-1.9,2H181.1z"/>
					<path d="M186.2,128h0.9l0.1,0.9h0c0.6-0.6,1.3-1.1,2.2-1.1c1.4,0,2,0.9,2,2.6v4.2h-1.1v-4c0-1.2-0.4-1.8-1.2-1.8
						c-0.7,0-1.1,0.3-1.8,1v4.8h-1.1V128z"/>
					<path d="M195.5,131.3c0-2.2,1.5-3.5,3.2-3.5c0.9,0,1.5,0.4,1.9,0.8l-0.6,0.7c-0.4-0.3-0.8-0.6-1.3-0.6c-1.2,0-2.1,1-2.1,2.5
						c0,1.5,0.8,2.5,2,2.5c0.6,0,1.1-0.3,1.5-0.7l0.5,0.7c-0.6,0.5-1.3,0.8-2.1,0.8C196.9,134.7,195.5,133.4,195.5,131.3z"/>
					<path d="M204.5,125.9c0-0.4,0.3-0.7,0.8-0.7c0.4,0,0.8,0.3,0.8,0.7c0,0.4-0.3,0.7-0.8,0.7C204.8,126.6,204.5,126.3,204.5,125.9
						z M204.7,128h1.1v6.6h-1.1V128z"/>
					<path d="M210.1,132.8c0-1.4,1.2-2.1,4-2.5c0-0.8-0.3-1.7-1.4-1.7c-0.8,0-1.4,0.4-2,0.7l-0.4-0.8c0.6-0.4,1.5-0.9,2.6-0.9
						c1.6,0,2.3,1.1,2.3,2.7v4h-0.9l-0.1-0.8h0c-0.6,0.5-1.4,0.9-2.2,0.9C210.9,134.7,210.1,134,210.1,132.8z M214.1,132.9v-1.8
						c-2.2,0.3-3,0.8-3,1.6c0,0.7,0.5,1.1,1.2,1.1C213,133.8,213.5,133.5,214.1,132.9z"/>
					<path d="M219,133.8l0.5-0.7c0.6,0.5,1.2,0.8,1.9,0.8c0.9,0,1.3-0.5,1.3-1c0-0.7-0.8-1-1.5-1.2c-0.9-0.3-2-0.8-2-1.9
						c0-1.1,0.8-1.9,2.3-1.9c0.8,0,1.5,0.3,2,0.7l-0.5,0.7c-0.5-0.3-0.9-0.6-1.5-0.6c-0.8,0-1.2,0.4-1.2,0.9c0,0.6,0.7,0.9,1.5,1.1
						c0.9,0.4,2,0.7,2,2c0,1.1-0.8,2-2.4,2C220.6,134.7,219.7,134.3,219,133.8z"/>
					<path d="M232.4,133.8l0.5-0.7c0.6,0.5,1.2,0.8,1.9,0.8c0.9,0,1.3-0.5,1.3-1c0-0.7-0.8-1-1.5-1.2c-0.9-0.3-2-0.8-2-1.9
						c0-1.1,0.8-1.9,2.3-1.9c0.8,0,1.5,0.3,2,0.7l-0.5,0.7c-0.5-0.3-0.9-0.6-1.5-0.6c-0.8,0-1.2,0.4-1.2,0.9c0,0.6,0.7,0.9,1.5,1.1
						c0.9,0.4,2,0.7,2,2c0,1.1-0.8,2-2.4,2C233.9,134.7,233,134.3,232.4,133.8z"/>
					<path d="M241,125.9c0-0.4,0.3-0.7,0.8-0.7c0.4,0,0.8,0.3,0.8,0.7c0,0.4-0.3,0.7-0.8,0.7C241.4,126.6,241,126.3,241,125.9z
						 M241.2,128h1.1v6.6h-1.1V128z"/>
					<path d="M246.5,135.8c0-0.6,0.4-1.1,1-1.5v-0.1c-0.3-0.2-0.6-0.6-0.6-1.1c0-0.5,0.4-1,0.7-1.2v-0.1c-0.4-0.3-0.9-1-0.9-1.8
						c0-1.4,1.1-2.3,2.5-2.3c0.4,0,0.7,0.1,0.9,0.2h2.3v0.9h-1.4c0.3,0.3,0.5,0.8,0.5,1.4c0,1.4-1.1,2.3-2.4,2.3
						c-0.3,0-0.7-0.1-1-0.2c-0.2,0.2-0.4,0.4-0.4,0.8c0,0.4,0.3,0.7,1.2,0.7h1.3c1.5,0,2.3,0.5,2.3,1.6c0,1.2-1.3,2.3-3.3,2.3
						C247.7,137.6,246.5,136.9,246.5,135.8z M251.5,135.5c0-0.6-0.5-0.8-1.3-0.8H249c-0.3,0-0.6,0-0.9-0.1c-0.5,0.3-0.7,0.7-0.7,1.1
						c0,0.7,0.7,1.2,1.9,1.2C250.7,136.8,251.5,136.2,251.5,135.5z M250.7,130.2c0-1-0.6-1.5-1.4-1.5s-1.4,0.6-1.4,1.5
						c0,1,0.6,1.6,1.4,1.6C250,131.7,250.7,131.1,250.7,130.2z"/>
					<path d="M256.3,128h0.9l0.1,0.9h0c0.6-0.6,1.3-1.1,2.2-1.1c1.4,0,2,0.9,2,2.6v4.2h-1.1v-4c0-1.2-0.4-1.8-1.2-1.8
						c-0.7,0-1.1,0.3-1.8,1v4.8h-1.1V128z"/>
					<path d="M266,125.9c0-0.4,0.3-0.7,0.8-0.7c0.4,0,0.8,0.3,0.8,0.7c0,0.4-0.3,0.7-0.8,0.7C266.3,126.6,266,126.3,266,125.9z
						 M266.2,128h1.1v6.6h-1.1V128z"/>
					<path d="M271.3,128l0.9-0.1h2.5v0.9h-3.4V128z M272.2,126.9c0-1.3,0.6-2.2,1.9-2.2c0.4,0,0.8,0.1,1.1,0.2l-0.2,0.8
						c-0.3-0.1-0.5-0.2-0.7-0.2c-0.6,0-0.9,0.4-0.9,1.3v7.6h-1.1V126.9z"/>
					<path d="M278.2,125.9c0-0.4,0.3-0.7,0.8-0.7c0.4,0,0.8,0.3,0.8,0.7c0,0.4-0.3,0.7-0.8,0.7C278.6,126.6,278.2,126.3,278.2,125.9
						z M278.4,128h1.1v6.6h-1.1V128z"/>
					<path d="M283.8,131.3c0-2.2,1.5-3.5,3.2-3.5c0.9,0,1.5,0.4,1.9,0.8l-0.6,0.7c-0.4-0.3-0.8-0.6-1.3-0.6c-1.2,0-2.1,1-2.1,2.5
						c0,1.5,0.8,2.5,2,2.5c0.6,0,1.1-0.3,1.5-0.7l0.5,0.7c-0.6,0.5-1.3,0.8-2.1,0.8C285.1,134.7,283.8,133.4,283.8,131.3z"/>
					<path d="M292.5,132.8c0-1.4,1.2-2.1,4-2.5c0-0.8-0.3-1.7-1.4-1.7c-0.8,0-1.4,0.4-2,0.7l-0.4-0.8c0.6-0.4,1.5-0.9,2.6-0.9
						c1.6,0,2.3,1.1,2.3,2.7v4h-0.9l-0.1-0.8h0c-0.6,0.5-1.4,0.9-2.2,0.9C293.3,134.7,292.5,134,292.5,132.8z M296.5,132.9v-1.8
						c-2.2,0.3-3,0.8-3,1.6c0,0.7,0.5,1.1,1.2,1.1C295.4,133.8,295.9,133.5,296.5,132.9z"/>
					<path d="M302.4,132.5v-3.6h-1V128l1-0.1l0.1-1.8h0.9v1.8h1.8v0.9h-1.8v3.7c0,0.8,0.3,1.3,1,1.3c0.2,0,0.5-0.1,0.8-0.2l0.2,0.8
						c-0.4,0.1-0.8,0.2-1.2,0.2C302.9,134.7,302.4,133.8,302.4,132.5z"/>
					<path d="M309,125.9c0-0.4,0.3-0.7,0.8-0.7c0.4,0,0.8,0.3,0.8,0.7c0,0.4-0.3,0.7-0.8,0.7C309.4,126.6,309,126.3,309,125.9z
						 M309.2,128h1.1v6.6h-1.1V128z"/>
					<path d="M314.1,128h1.1l1.2,3.7c0.2,0.6,0.4,1.3,0.6,1.9h0.1c0.2-0.6,0.4-1.3,0.6-1.9l1.2-3.7h1.1l-2.3,6.6h-1.3L314.1,128z"/>
					<path d="M323.4,132.8c0-1.4,1.2-2.1,4-2.5c0-0.8-0.3-1.7-1.4-1.7c-0.8,0-1.4,0.4-2,0.7l-0.4-0.8c0.6-0.4,1.5-0.9,2.6-0.9
						c1.6,0,2.3,1.1,2.3,2.7v4h-0.9l-0.1-0.8h0c-0.6,0.5-1.4,0.9-2.2,0.9C324.2,134.7,323.4,134,323.4,132.8z M327.5,132.9v-1.8
						c-2.2,0.3-3,0.8-3,1.6c0,0.7,0.5,1.1,1.2,1.1C326.3,133.8,326.8,133.5,327.5,132.9z"/>
					<path d="M332.4,133.8l0.5-0.7c0.6,0.5,1.2,0.8,1.9,0.8c0.9,0,1.3-0.5,1.3-1c0-0.7-0.8-1-1.5-1.2c-0.9-0.3-2-0.8-2-1.9
						c0-1.1,0.8-1.9,2.3-1.9c0.8,0,1.5,0.3,2,0.7l-0.5,0.7c-0.5-0.3-0.9-0.6-1.5-0.6c-0.8,0-1.2,0.4-1.2,0.9c0,0.6,0.7,0.9,1.5,1.1
						c0.9,0.4,2,0.7,2,2c0,1.1-0.8,2-2.4,2C333.9,134.7,333,134.3,332.4,133.8z"/>
				</g>
			</g>
		</g>
	</g>
	<g>
		<path class="st1" d="M28.9,6.8h0.4c1.7,0,3.1,0.8,4.2,2.5c8.2,16.2,12.3,24.5,12.4,24.9c0.3,1.1,0.5,1.7,0.5,1.9
			c0,1.9-0.9,3.4-2.8,4.5c-0.8,0.4-1.6,0.6-2.4,0.6c-1.7,0-3.1-0.8-4.2-2.3c-0.1-0.2-2.4-4.7-6.9-13.6c-0.3-0.3-0.6-0.5-1-0.5
			c-0.7,0-1.2,0.6-1.7,1.8L11,59.2c-0.6,1-1.6,1.7-2.8,2.1c-0.2,0-0.3,0.1-0.5,0.1H6c-0.8,0-1.6-0.4-2.7-1.3c-1-1.1-1.5-2.3-1.5-3.7
			c0-1,0.7-2.8,2.2-5.5c0-0.1,5.7-11.4,17.1-34.1c2.5-5,3.8-7.7,4-8C26.2,7.5,27.5,6.8,28.9,6.8z M51.3,51.6h0.4
			c1.6,0,3,0.8,4.1,2.4c0.5,0.9,0.7,1.7,0.7,2.5c0,1.9-0.9,3.3-2.7,4.4c-0.6,0.3-1.1,0.5-1.4,0.5h-1.7c-0.8,0-1.7-0.5-2.8-1.4
			c-0.9-1.1-1.4-2.2-1.4-3.4c0-1.6,0.7-2.9,2-4C49.4,51.9,50.4,51.6,51.3,51.6z"/>
		<path class="st1" d="M79.4,11.2c1.7,0,3,0.8,4,2.5c0.3,0.7,0.5,1.4,0.5,2c0,1.7-0.8,3-2.5,4c-3.3,2.3-5.5,5.3-6.7,9
			c-0.7,2.2-1,4.2-1,6.1c0,4.4,1.7,8.5,5.1,12.3c1.5,1.5,2.8,2.5,3.7,2.9c3,1.7,6.1,2.5,9.4,2.5c4,0,7.8-1.4,11.3-4.2
			c0.8-0.5,1.6-0.7,2.4-0.7c1.8,0,3.1,0.9,4.1,2.7c0.3,0.6,0.4,1.2,0.4,1.8c0,1.8-1,3.3-3.1,4.5c-1.4,1-2.7,1.8-3.9,2.3
			c-1.4,0.6-2.7,1.2-3.9,1.5c-2.4,0.6-4.1,1-5.3,1h-4.1c-1.7,0-4.1-0.5-7.4-1.5C76,57.6,71,53.1,67.5,46.5c-2-3.9-2.9-7.8-2.9-11.8
			c0-4.6,1.1-9.1,3.4-13.5c0.8-1.4,1.9-2.9,3.4-4.6c1.5-1.6,2.6-2.6,3.4-3.2c1.8-1.5,3.2-2.2,4.2-2.2L79.4,11.2z M90.7,6.3H91
			c1.5,0,2.8,0.7,3.9,2.1c0.6,0.8,0.8,1.8,0.8,2.8c0,1.8-0.9,3.3-2.6,4.3c-0.8,0.4-1.5,0.5-2.2,0.5c-1.9,0-3.4-1-4.5-2.9
			c-0.3-0.7-0.4-1.4-0.4-2c0-1.8,0.9-3.2,2.6-4.3C89.4,6.5,90.1,6.3,90.7,6.3z"/>
		<path class="st1" d="M123.2,6.3h18.7c1.6,0,2.9,0.8,3.9,2.4c0.4,0.7,0.5,1.4,0.5,2.1v46.1c0,1.7-0.9,3.1-2.6,4.1
			c-0.6,0.2-1,0.4-1.2,0.4h-1.6c-0.8,0-1.6-0.5-2.5-1.3c-0.9-0.9-1.3-2.1-1.3-3.6V15.5h-13.9c-1.4,0-2.7-0.7-3.8-2.2
			c-0.4-0.9-0.6-1.7-0.6-2.4c0-1.6,0.7-2.9,2.2-3.9C121.7,6.5,122.5,6.3,123.2,6.3z M159.9,6.3h0.4c1.5,0,2.7,0.8,3.8,2.3
			c0.4,0.8,0.6,1.6,0.6,2.4c0,1.7-0.8,3-2.4,4c-0.7,0.3-1.4,0.5-2,0.5h-0.4c-1.6,0-2.9-0.8-3.9-2.4c-0.4-0.8-0.6-1.5-0.6-2.3
			c0-1.7,0.8-3,2.4-4C158.5,6.5,159.2,6.3,159.9,6.3z"/>
		<path class="st1" d="M196.7,18.1h0.4c1.6,0,3,0.6,4.1,1.9c0.4,0.6,0.5,1.1,0.5,1.6v36.2c0,1.5-1,2.6-3,3.4
			c-0.5,0.1-0.8,0.2-0.9,0.2h-1.7c-0.8,0-1.7-0.4-2.8-1.2c-0.8-0.7-1.2-1.5-1.2-2.5v-36c0-1.6,1-2.7,3.1-3.5
			C195.8,18.2,196.3,18.1,196.7,18.1z"/>
		<path class="st1" d="M233.3,10.8h0.2c1.8,0,3.3,0.9,4.3,2.8c11,22,16.6,33.1,16.6,33.1c5.7-11.4,8.6-17.2,8.8-17.5
			c1.1-1.4,2.4-2.1,4-2.1c1.8,0,3.3,0.9,4.3,2.7c0.3,0.7,0.5,1.3,0.5,1.8v0.5c0,0.8-0.5,2-1.4,3.7c-7.6,15.2-11.5,23-11.7,23.2
			c-0.7,1-1.6,1.7-2.8,2.1c-0.3,0.1-0.6,0.2-0.9,0.2h-1.6c-0.9-0.1-2-0.6-3-1.5c-0.6-0.8-1.4-2.2-2.4-4.2c0,0-5.6-11.2-16.8-33.5
			c-1.7-3.3-2.6-5.1-2.6-5.2c-0.1-0.5-0.1-0.9-0.1-1.3c0-1.8,0.9-3.3,2.7-4.3C232.1,11,232.7,10.8,233.3,10.8z M275.2,10.8h0.2
			c1.2,0,2.3,0.4,3.3,1.3c1,1,1.4,2.1,1.4,3.3v0.4c0,1.5-0.7,2.8-2.2,3.8c-0.8,0.5-1.6,0.8-2.5,0.8h-0.1c-1.5,0-2.8-0.7-3.8-2
			c-0.6-0.8-0.9-1.7-0.9-2.7v-0.1c0-1.8,0.9-3.3,2.7-4.3C274,11,274.7,10.8,275.2,10.8z"/>
		<path class="st1" d="M315.4,6.8h0.4c1.7,0,3.1,0.8,4.2,2.5c8.2,16.2,12.3,24.5,12.4,24.9c0.3,1.1,0.4,1.7,0.4,1.9
			c0,1.9-0.9,3.4-2.8,4.5c-0.8,0.4-1.6,0.6-2.4,0.6c-1.7,0-3.1-0.8-4.2-2.3c-0.1-0.2-2.4-4.7-6.9-13.6c-0.3-0.3-0.6-0.5-1-0.5
			c-0.7,0-1.2,0.6-1.7,1.8l-16.5,32.6c-0.6,1-1.6,1.7-2.8,2.1c-0.2,0-0.3,0.1-0.5,0.1h-1.7c-0.8,0-1.6-0.4-2.7-1.3
			c-1-1.1-1.5-2.3-1.5-3.7c0-1,0.7-2.8,2.2-5.5c0-0.1,5.7-11.4,17.1-34.1c2.5-5,3.8-7.7,4-8C312.7,7.5,314,6.8,315.4,6.8z
			 M337.8,51.6h0.4c1.6,0,3,0.8,4.1,2.4c0.5,0.9,0.7,1.7,0.7,2.5c0,1.9-0.9,3.3-2.7,4.4c-0.6,0.3-1.1,0.5-1.4,0.5h-1.7
			c-0.8,0-1.7-0.5-2.8-1.4c-0.9-1.1-1.4-2.2-1.4-3.4c0-1.6,0.7-2.9,2-4C335.9,51.9,336.9,51.6,337.8,51.6z"/>
		<path class="st1" d="M201.1,7.6l-7,7.2c-1.1-1.1-1.6-2.5-1.4-4.2c0.2-1.1,0.6-2,1.2-2.6l0.3-0.3c1.2-1.2,2.7-1.6,4.6-1.2
			C199.8,6.7,200.5,7.1,201.1,7.6z"/>
		<path class="st1" d="M355,6.3h18.7c1.6,0,2.9,0.8,3.9,2.4c0.4,0.7,0.5,1.4,0.5,2.1v46.1c0,1.7-0.9,3.1-2.6,4.1
			c-0.6,0.2-1,0.4-1.2,0.4h-1.6c-0.8,0-1.6-0.5-2.5-1.3c-0.9-0.9-1.3-2.1-1.3-3.6V15.5h-13.9c-1.4,0-2.7-0.7-3.8-2.2
			c-0.4-0.9-0.6-1.7-0.6-2.4c0-1.6,0.7-2.9,2.2-3.9C353.5,6.5,354.2,6.3,355,6.3z M391.7,6.3h0.4c1.5,0,2.7,0.8,3.8,2.3
			c0.4,0.8,0.6,1.6,0.6,2.4c0,1.7-0.8,3-2.4,4c-0.7,0.3-1.4,0.5-2,0.5h-0.4c-1.6,0-2.9-0.8-3.9-2.4c-0.4-0.8-0.6-1.5-0.6-2.3
			c0-1.7,0.8-3,2.4-4C390.3,6.5,391,6.3,391.7,6.3z"/>
		<path class="st1" d="M414.9,6.3h26.9l0.1,0.1h0.1c1.6,0,2.9,0.8,3.9,2.5c0.3,0.7,0.5,1.4,0.5,2.1c0,1.8-0.9,3.2-2.6,4.1
			c-0.6,0.3-1.2,0.4-1.8,0.4h-27.4c-1.3,0-2.4-0.6-3.4-1.8c-0.6-0.9-1-1.7-1-2.6v-0.4c0-1.4,0.7-2.6,2.1-3.6
			c0.8-0.5,1.5-0.7,2.3-0.7h0.1L414.9,6.3z M414.8,29.3l13.9,0.1c0.9,0,1.9,0.5,3,1.4c0.8,1,1.3,2,1.3,3.2c0,1.6-0.7,2.9-2.2,3.9
			c-0.7,0.4-1.4,0.6-2.1,0.6h-14c-1.4,0-2.6-0.7-3.6-2.1c-0.5-0.8-0.7-1.5-0.7-2.3v-0.4c0-1.5,0.8-2.7,2.3-3.8
			c0.8-0.4,1.5-0.6,2.2-0.6L414.8,29.3C414.8,29.4,414.8,29.4,414.8,29.3z M414.9,52.3h26.9c0,0,0.3,0.1,1,0.2
			c1.1,0.3,2,0.8,2.5,1.5c0.8,0.9,1.1,1.9,1.1,3c0,1.7-0.9,3.1-2.6,4.1c-0.5,0.2-0.9,0.3-1.1,0.3h-28.8c-0.8,0-1.7-0.5-2.7-1.5
			c-0.7-0.9-1-1.9-1-2.8v-0.3c0-1.6,0.8-2.9,2.4-3.9C413.1,52.6,413.8,52.4,414.9,52.3C414.8,52.3,414.8,52.3,414.9,52.3z
			 M441.7,29.4h0.2c1.7,0,3.1,0.9,4.1,2.7c0.3,0.6,0.4,1.3,0.4,1.9c0,1.8-0.9,3.2-2.7,4.2c-0.6,0.3-1.2,0.4-1.7,0.4h-0.5
			c-1.5,0-2.7-0.8-3.7-2.3c-0.4-0.8-0.6-1.5-0.6-2.3c0-1.8,0.9-3.1,2.6-4.1C440.6,29.5,441.2,29.4,441.7,29.4z"/>
	</g>
</g>
</svg>
