<?xml version="1.0" encoding="utf-8"?>
<!-- Generator: Adobe Illustrator 27.0.0, SVG Export Plug-In . SVG Version: 6.00 Build 0)  -->
<svg version="1.1" id="Capa_1" xmlns="http://www.w3.org/2000/svg" xmlns:xlink="http://www.w3.org/1999/xlink" x="0px" y="0px"
	 viewBox="0 0 16 16" style="enable-background:new 0 0 16 16;" xml:space="preserve">
<style type="text/css">
	.st0{fill:#000111;}
</style>
<g>
	<path class="st0" d="M1.76,11.66c0-0.29,0-0.59,0-0.88c0.01-0.09,0.02-0.17,0.02-0.26C1.8,9.8,1.84,9.08,1.97,8.37
		c0.12-0.66,0.6-1.21,1.26-1.31c0.46-0.07,0.93-0.1,1.39-0.12c2.61-0.12,5.23-0.12,7.84,0.07c0.57,0.04,1.04,0.26,1.36,0.75
		c0.19,0.29,0.25,0.62,0.28,0.95c0.06,0.8,0.13,1.59,0.14,2.39c0.02,0.98-0.02,1.96-0.19,2.93c-0.12,0.67-0.6,1.21-1.27,1.31
		c-0.56,0.08-1.13,0.12-1.7,0.14c-1.48,0.03-2.96,0.07-4.44,0.05c-1.09-0.01-2.17-0.09-3.26-0.16c-0.62-0.04-1.18-0.49-1.33-1.1
		c-0.11-0.46-0.16-0.95-0.21-1.42C1.79,12.45,1.78,12.05,1.76,11.66z M8.27,8.33c0,1.87,0,3.71,0,5.56c0.25,0,0.49,0,0.74,0
		c0-0.13,0-0.24,0-0.37c0.12,0.1,0.22,0.2,0.33,0.28c0.46,0.33,0.98,0.13,1.08-0.43c0.02-0.11,0.03-0.21,0.03-0.32
		c0.01-0.67,0.01-1.34,0.01-2.02c0-0.24,0-0.49-0.04-0.73C10.3,9.59,9.7,9.58,9.32,9.85c-0.11,0.07-0.2,0.17-0.31,0.27
		c0-0.61,0-1.2,0-1.79C8.75,8.33,8.52,8.33,8.27,8.33z M13.32,11.96c-0.02-0.46-0.01-0.9-0.07-1.34c-0.09-0.73-0.72-1.05-1.41-0.88
		c-0.47,0.12-0.77,0.52-0.78,1.07c-0.02,0.68-0.02,1.35,0,2.03c0.03,0.8,0.66,1.27,1.44,1.09c0.66-0.16,0.87-0.76,0.77-1.46
		c-0.24,0-0.49,0-0.74,0c-0.01,0.17-0.01,0.33-0.03,0.49c-0.02,0.2-0.14,0.31-0.32,0.32c-0.17,0.01-0.33-0.09-0.35-0.27
		c-0.04-0.34-0.04-0.69-0.06-1.05C12.31,11.96,12.8,11.96,13.32,11.96z M6.86,13.89c0.25,0,0.49,0,0.73,0c0-1.38,0-2.76,0-4.13
		c-0.25,0-0.49,0-0.74,0c0,1,0,2,0,2.99c0,0.24-0.2,0.47-0.43,0.52c-0.13,0.03-0.21-0.02-0.22-0.15c-0.02-0.13-0.02-0.26-0.02-0.4
		c0-0.93,0-1.86,0-2.8c0-0.06,0-0.11,0-0.17c-0.26,0-0.5,0-0.74,0c0,0.04-0.01,0.07-0.01,0.1c0,1.06,0,2.13,0,3.19
		c0,0.16,0.01,0.32,0.04,0.48c0.06,0.34,0.31,0.49,0.65,0.41c0.22-0.05,0.4-0.18,0.56-0.34c0.05-0.04,0.09-0.09,0.16-0.16
		C6.86,13.62,6.86,13.75,6.86,13.89z M4.44,13.89c0-1.6,0-3.18,0-4.79c0.31,0,0.59,0,0.88,0c0-0.27,0-0.52,0-0.77
		c-0.87,0-1.74,0-2.6,0c0,0.26,0,0.52,0,0.78c0.29,0,0.58,0,0.87,0c0,1.6,0,3.19,0,4.78C3.87,13.89,4.14,13.89,4.44,13.89z"/>
	<path class="st0" d="M6.71,0.47C6.51,1.1,6.32,1.74,6.12,2.37c-0.08,0.27-0.15,0.54-0.24,0.8c-0.16,0.44-0.22,0.89-0.2,1.35
		c0.02,0.47,0,0.93,0,1.4c0,0.05,0,0.11,0,0.17c-0.28,0-0.55,0-0.84,0c0-0.06,0-0.11,0-0.16c0-0.52-0.02-1.04,0-1.56
		C4.87,3.9,4.78,3.45,4.63,3c-0.26-0.8-0.53-1.59-0.8-2.38C3.82,0.57,3.81,0.52,3.8,0.47c0.29,0,0.59,0,0.88,0
		C4.87,1.18,5.06,1.9,5.26,2.62C5.4,2.17,5.52,1.72,5.64,1.26C5.7,1,5.76,0.73,5.83,0.47C6.12,0.47,6.42,0.47,6.71,0.47z"/>
	<path class="st0" d="M9.58,1.91c0.26,0,0.49,0,0.76,0c0,0.06,0,0.13,0,0.19c0,1.03,0.01,2.06,0.01,3.09c0,0.1-0.01,0.24,0.11,0.26
		c0.09,0.02,0.22-0.02,0.3-0.07c0.16-0.11,0.26-0.26,0.26-0.49c-0.02-0.93-0.01-1.86-0.01-2.8c0-0.05,0-0.11,0-0.17
		c0.26,0,0.5,0,0.76,0c0,1.39,0,2.77,0,4.17c-0.25,0-0.49,0-0.75,0c0-0.14,0-0.27,0-0.41C11,5.67,10.98,5.66,10.97,5.65
		c-0.05,0.06-0.09,0.13-0.14,0.18c-0.22,0.2-0.45,0.36-0.77,0.33C9.82,6.13,9.67,6,9.63,5.76C9.6,5.57,9.58,5.37,9.58,5.18
		c0-1.05,0-2.1,0-3.15C9.58,1.99,9.58,1.96,9.58,1.91z"/>
	<path class="st0" d="M8.97,4.01C8.95,4.41,8.96,4.81,8.91,5.2c-0.1,0.79-0.76,1.1-1.46,0.9c-0.39-0.11-0.6-0.41-0.68-0.8
		C6.75,5.22,6.73,5.14,6.73,5.06c0-0.74-0.02-1.47,0.02-2.21C6.77,2.39,7.02,2.03,7.5,1.9c0.7-0.18,1.32,0.15,1.41,0.92
		C8.96,3.21,8.95,3.61,8.97,4.01z M7.48,3.98c0,0.34-0.01,0.69,0,1.03c0,0.1,0.03,0.21,0.07,0.29c0.11,0.22,0.43,0.22,0.55,0
		c0.05-0.09,0.07-0.2,0.08-0.29c0.01-0.68,0.01-1.35,0-2.03c0-0.1-0.03-0.21-0.08-0.29c-0.11-0.21-0.43-0.21-0.54,0
		C7.51,2.78,7.48,2.89,7.48,2.99C7.47,3.32,7.48,3.65,7.48,3.98z"/>
	<path class="st0" d="M9.01,11.81c0-0.37,0-0.75,0-1.12c0-0.17,0.1-0.27,0.3-0.31c0.16-0.03,0.29,0.02,0.34,0.18
		c0.04,0.1,0.06,0.22,0.06,0.33c0.01,0.62,0.01,1.24,0,1.85c0,0.12-0.03,0.25-0.07,0.36c-0.05,0.14-0.19,0.19-0.34,0.16
		c-0.19-0.04-0.29-0.15-0.29-0.3C9.01,12.58,9.01,12.19,9.01,11.81z"/>
	<path class="st0" d="M12.58,11.32c-0.28,0-0.51,0-0.79,0c0.02-0.24,0.03-0.48,0.07-0.72c0.03-0.16,0.16-0.23,0.32-0.24
		c0.16,0,0.3,0.08,0.33,0.24C12.55,10.84,12.55,11.08,12.58,11.32z"/>
</g>
</svg>
